<svg width="40" height="40" viewBox="0 0 40 40" fill="none" xmlns="http://www.w3.org/2000/svg">
<circle cx="20" cy="20" r="20" fill="#2B9348"/>
<path d="M20.9922 22.8086V10.7266H24.6016V22.75C24.6016 24.2188 24.3477 25.3828 23.8398 26.2422C22.9805 27.6953 21.4297 28.4219 19.1875 28.4219C16.9453 28.4219 15.4414 27.8359 14.6758 26.6641C13.9102 25.4844 13.5273 23.8789 13.5273 21.8477V21.4492H16.9375V21.8477C16.9688 23.1836 17.1133 24.125 17.3711 24.6719C17.6367 25.2109 18.1992 25.4805 19.0586 25.4805C19.9102 25.4805 20.4727 25.1836 20.7461 24.5898C20.9102 24.2383 20.9922 23.6445 20.9922 22.8086Z" fill="#F5F5F5"/>
</svg>
